<?xml version="1.0" standalone="no"?>
<!DOCTYPE svg PUBLIC "-//W3C//DTD SVG 20010904//EN"
 "http://www.w3.org/TR/2001/REC-SVG-20010904/DTD/svg10.dtd">
<svg version="1.0" xmlns="http://www.w3.org/2000/svg"
 width="582.000000pt" height="170.000000pt" viewBox="0 0 582.000000 170.000000"
 preserveAspectRatio="xMidYMid meet">
<metadata>
Created by potrace 1.10, written by Peter Selinger 2001-2011
</metadata>
<g transform="translate(0.000000,170.000000) scale(0.050000,-0.050000)"
fill="#4195c1" stroke="none">
<path d="M8923 3322 c-19 -12 -21 -21 -5 -31 13 -8 17 -22 11 -33 -7 -10 0
-17 15 -13 18 3 25 -14 22 -55 -4 -45 0 -52 14 -30 11 17 19 57 19 90 0 41 -5
51 -17 33 -12 -19 -21 -21 -31 -5 -7 12 -8 31 -1 42 15 24 9 25 -27 2z"/>
<path d="M8971 2969 c1 -48 6 -93 12 -99 17 -16 18 137 1 164 -8 13 -14 -16
-13 -65z"/>
<path d="M848 2740 c-509 -35 -814 -491 -603 -902 l72 -140 -58 -59 c-94 -97
-65 -139 96 -139 124 0 225 44 225 98 0 50 -43 64 -90 30 -77 -56 -133 -37
-94 32 28 49 30 65 9 95 -429 597 402 1217 966 721 425 -373 -8 -1031 -602
-915 -83 16 -100 -72 -18 -93 118 -30 379 3 501 62 700 341 392 1265 -404
1210z"/>
<path d="M2116 2195 l6 -355 68 0 68 0 6 317 c7 393 11 377 -80 386 l-74 7 6
-355z"/>
<path d="M2380 2480 c0 -119 158 -74 160 45 0 8 -36 15 -80 15 -76 0 -80 -3
-80 -60z"/>
<path d="M5045 2364 l-65 -7 0 -169 c0 -305 154 -455 314 -305 l46 44 0 -44
c0 -36 11 -43 75 -43 l75 0 1 260 0 260 -75 0 -76 0 0 -160 c0 -170 -34 -240
-116 -240 -68 0 -84 42 -84 223 0 190 0 191 -95 181z"/>
<path d="M547 2328 c-21 -54 46 -104 86 -64 41 41 22 96 -33 96 -23 0 -47 -14
-53 -32z"/>
<path d="M754 2347 c-69 -68 -16 -87 247 -87 260 0 262 0 255 45 -6 45 -461
84 -502 42z"/>
<path d="M2380 2100 l0 -260 70 0 70 0 0 260 0 260 -70 0 -70 0 0 -260z"/>
<path d="M2640 2100 l0 -260 75 0 76 0 -7 145 c-9 163 36 255 123 255 78 0 93
-37 93 -224 l0 -176 70 0 70 0 0 202 c0 280 -155 423 -300 278 -22 -22 -44
-40 -50 -40 -5 0 -10 18 -10 40 0 32 -13 40 -70 40 l-70 0 0 -260z"/>
<path d="M3333 2311 c-222 -206 10 -601 258 -439 47 31 49 31 49 -9 0 -65 -86
-110 -186 -98 -85 9 -85 8 -84 -53 1 -59 6 -62 91 -69 265 -19 319 54 319 430
l0 287 -69 0 c-38 0 -74 -9 -81 -20 -8 -13 -25 -13 -50 0 -71 38 -190 24 -247
-29z m267 -126 c106 -135 -52 -300 -176 -184 -86 80 -27 239 88 239 25 0 64
-24 88 -55z"/>
<path d="M3958 2282 c-171 -170 -59 -442 181 -442 98 0 183 40 225 104 179
272 -177 568 -406 338z m273 -91 c82 -82 24 -231 -90 -231 -60 0 -121 71 -121
140 0 126 123 179 211 91z"/>
<path d="M4549 2311 c-89 -89 -35 -207 121 -260 85 -29 101 -63 46 -98 -26
-16 -43 -13 -73 15 -40 35 -163 31 -163 -6 0 -56 118 -122 217 -122 234 0 282
237 62 303 -96 28 -139 71 -91 89 17 7 48 5 67 -3 99 -43 167 11 98 79 -71 72
-213 74 -284 3z"/>
<path d="M5600 2101 l0 -261 80 0 80 0 0 167 c0 179 26 233 113 233 80 0 107
-61 107 -237 l0 -163 78 0 79 0 -11 145 c-12 165 32 255 124 255 79 0 110 -70
110 -244 l0 -156 70 0 70 0 0 187 c0 307 -155 435 -340 280 -57 -48 -68 -51
-87 -24 -61 82 -204 102 -263 37 -45 -49 -74 -52 -66 -5 5 27 -10 36 -69 41
l-75 6 0 -261z"/>
<path d="M6609 2100 l0 -260 75 0 76 0 0 167 c0 179 26 233 113 233 80 0 107
-61 107 -237 l0 -163 80 0 80 0 0 169 c0 152 4 172 44 200 117 82 176 13 176
-206 l0 -163 82 0 c76 0 82 4 71 45 -7 25 -13 115 -13 202 0 252 -187 366
-349 214 l-46 -44 -56 52 c-68 63 -163 67 -236 10 l-53 -42 0 42 c0 34 -12 41
-76 41 l-75 0 0 -260z"/>
<path d="M7688 2295 c-211 -194 9 -565 257 -432 32 17 45 17 51 0 4 -13 38
-23 76 -23 l68 0 0 260 0 260 -68 0 c-38 0 -73 -11 -78 -25 -7 -20 -14 -20
-35 0 -55 51 -194 30 -271 -40z m259 -80 c18 -14 39 -58 46 -98 21 -133 -109
-205 -207 -114 -115 109 34 305 161 212z"/>
<path d="M8252 2105 l3 -255 72 -6 73 -6 0 132 c0 159 66 250 179 250 57 0 62
5 53 55 -5 30 -9 62 -10 70 -5 40 -111 10 -164 -47 l-58 -62 0 62 c0 58 -4 62
-75 62 l-75 0 2 -255z"/>
<path d="M552 2128 c-17 -45 34 -98 78 -81 20 8 30 30 26 58 -8 56 -85 73
-104 23z"/>
<path d="M740 2100 c0 -22 9 -40 20 -41 11 -1 119 -1 240 -1 121 0 229 0 240
1 11 1 20 19 20 41 0 38 -13 40 -260 40 -247 0 -260 -2 -260 -40z"/>
<path d="M565 1937 c-32 -32 -32 -67 2 -94 36 -31 100 17 90 68 -9 46 -58 60
-92 26z"/>
<path d="M734 1912 c-22 -57 33 -72 265 -72 243 1 290 12 270 67 -18 45 -518
50 -535 5z"/>
</g>
</svg>
