<?xml version="1.0" standalone="no"?>
<!DOCTYPE svg PUBLIC "-//W3C//DTD SVG 20010904//EN"
 "http://www.w3.org/TR/2001/REC-SVG-20010904/DTD/svg10.dtd">
<svg version="1.0" xmlns="http://www.w3.org/2000/svg"
 width="154.000000pt" height="149.000000pt" viewBox="0 0 154.000000 149.000000"
 preserveAspectRatio="xMidYMid meet">
<metadata>
Created by potrace 1.10, written by Peter Selinger 2001-2011
</metadata>
<g transform="translate(0.000000,149.000000) scale(0.050000,-0.050000)"
fill="#3f97c5" stroke="none">
<path d="M1430 2248 c-177 -42 -235 -62 -338 -113 -430 -213 -592 -732 -351
-1121 72 -118 72 -114 -2 -185 -176 -168 56 -271 336 -148 166 72 94 172 -78
110 -121 -44 -131 -36 -76 56 l43 72 -82 122 c-190 285 -163 597 73 833 478
478 1382 221 1439 -409 39 -428 -323 -751 -844 -754 -233 -1 -240 -2 -246 -46
-14 -94 336 -121 580 -45 972 300 773 1571 -254 1629 -88 5 -178 5 -200 -1z"/>
<path d="M1121 1731 c-48 -57 18 -146 88 -119 73 28 49 148 -29 148 -19 0 -46
-13 -59 -29z"/>
<path d="M1367 1710 c-31 -82 -3 -90 333 -90 337 0 384 13 320 90 -37 44 -636
44 -653 0z"/>
<path d="M1130 1468 c-61 -62 12 -162 85 -116 61 39 35 148 -35 148 -9 0 -32
-15 -50 -32z"/>
<path d="M1374 1467 c-26 -26 -14 -103 18 -115 17 -7 155 -12 306 -12 300 0
374 21 330 94 -23 37 -620 68 -654 33z"/>
<path d="M1121 1191 c-48 -57 18 -146 88 -119 73 28 49 148 -29 148 -19 0 -46
-13 -59 -29z"/>
<path d="M1383 1202 c-14 -9 -23 -38 -20 -64 l7 -48 318 0 c343 0 425 26 323
101 -44 33 -579 42 -628 11z"/>
</g>
</svg>
